<?xml version="1.0" encoding="UTF-8"?>
<svg id="Layer_1" data-name="Layer 1" xmlns="http://www.w3.org/2000/svg" viewBox="0 0 468.98 457.17">
  <defs>
    <style>
      .cls-1 {
        fill: none;
        stroke-linecap: round;
        stroke-width: 30px;
      }

      .cls-1, .cls-2 {
        stroke: #000;
        stroke-miterlimit: 10;
      }

      .cls-3 {
        font-family: ArialRoundedMTBold, 'Arial Rounded MT Bold';
        font-size: 300px;
      }

      .cls-3, .cls-2 {
        fill: #000;
      }

      .cls-2 {
        stroke-width: 13px;
      }
    </style>
  </defs>
  <path class="cls-2" d="M444.55,273.56c-11.63-11.63-27.02-17.98-43.45-17.98s-31.87,6.4-43.5,18.03l-6.07,6.07-6.17-6.17c-11.63-11.63-27.12-18.08-43.55-18.08s-31.83,6.4-43.41,17.98c-11.63,11.63-18.03,27.07-17.98,43.5,0,16.43,6.45,31.83,18.08,43.45l88.41,88.41c1.22,1.22,2.87,1.88,4.47,1.88s3.25-.61,4.47-1.84l88.6-88.27c11.63-11.63,18.03-27.07,18.03-43.5.05-16.43-6.31-31.87-17.94-43.5ZM435.51,351.57l-84.13,83.8-83.94-83.94c-9.23-9.23-14.31-21.47-14.31-34.51s5.04-25.28,14.26-34.46c9.18-9.18,21.42-14.26,34.41-14.26s25.33,5.08,34.56,14.31l10.64,10.64c2.5,2.5,6.5,2.5,8.99,0l10.55-10.55c9.23-9.23,21.51-14.31,34.51-14.31s25.23,5.08,34.46,14.26c9.23,9.23,14.26,21.47,14.26,34.51.05,13.04-5.04,25.28-14.26,34.51Z"/>
  <text class="cls-3" transform="translate(0 259.2)"><tspan x="0" y="0">1</tspan></text>
  <line class="cls-1" x1="38.35" y1="413.67" x2="347.85" y2="104.17"/>
</svg>